<svg xmlns="http://www.w3.org/2000/svg" viewBox="0 0 64 64" fill="none">
  <defs>
    <linearGradient id="fg" x1="8" y1="4" x2="56" y2="60" gradientUnits="userSpaceOnUse">
      <stop offset="0%" stop-color="#6366f1"/>
      <stop offset="100%" stop-color="#a855f7"/>
    </linearGradient>
    <linearGradient id="fh" x1="20" y1="8" x2="44" y2="36" gradientUnits="userSpaceOnUse">
      <stop offset="0%" stop-color="#818cf8" stop-opacity="0.4"/>
      <stop offset="100%" stop-color="#7c3aed" stop-opacity="0"/>
    </linearGradient>
  </defs>
  <!-- Tentacles -->
  <path d="M16 38c-4 8-6 16-4 20 1 2 3 2 4 0s1-6 3-12c1-4 0-6-3-8" fill="url(#fg)" opacity="0.8"/>
  <path d="M24 42c-1 8-1 15 1 19 1 2 3 2 3 0s0-6 0-13c0-3 0-5-4-6" fill="url(#fg)" opacity="0.75"/>
  <path d="M40 42c1 8 1 15-1 19-1 2-3 2-3 0s0-6 0-13c0-3 0-5 4-6" fill="url(#fg)" opacity="0.75"/>
  <path d="M48 38c4 8 6 16 4 20-1 2-3 2-4 0s-1-6-3-12c-1-4 0-6 3-8" fill="url(#fg)" opacity="0.8"/>
  <!-- Head -->
  <ellipse cx="32" cy="24" rx="18" ry="22" fill="url(#fg)"/>
  <ellipse cx="30" cy="18" rx="12" ry="14" fill="url(#fh)"/>
  <!-- Eyes -->
  <ellipse cx="25" cy="25" rx="4.5" ry="5" fill="white"/>
  <ellipse cx="39" cy="25" rx="4.5" ry="5" fill="white"/>
  <circle cx="26.5" cy="25.5" r="2.5" fill="#1e1b4b"/>
  <circle cx="40.5" cy="25.5" r="2.5" fill="#1e1b4b"/>
  <circle cx="27.5" cy="24" r="1.2" fill="white" opacity="0.9"/>
  <circle cx="41.5" cy="24" r="1.2" fill="white" opacity="0.9"/>
  <!-- Smile -->
  <path d="M28 32 Q32 35 36 32" stroke="#4c1d95" stroke-width="1.5" stroke-linecap="round" fill="none" opacity="0.45"/>
</svg>