<svg xmlns="http://www.w3.org/2000/svg" viewBox="0 0 120 120" fill="none">
  <defs>
    <linearGradient id="g" x1="0" y1="0" x2="120" y2="120" gradientUnits="userSpaceOnUse">
      <stop offset="0%" stop-color="#6366f1"/>
      <stop offset="100%" stop-color="#a855f7"/>
    </linearGradient>
  </defs>
  <!-- Octopus head -->
  <path d="M60 16c-16 0-28 12-28 27 0 10 5 18 13 23l-12 22c-2 4 0 6 3 6 3 0 5-1 7-5l10-19c2 1 5 1 7 1s5 0 7-1l10 19c2 4 4 5 7 5 3 0 5-2 3-6L75 66c8-5 13-13 13-23 0-15-12-27-28-27z" fill="url(#g)"/>
  <!-- Eyes -->
  <circle cx="49" cy="42" r="3.5" fill="white"/>
  <circle cx="71" cy="42" r="3.5" fill="white"/>
  <!-- Tentacles -->
  <path d="M36 72c-6 10-10 20-8 26 1 3 3 4 5 3s3-4 2-7c-1-4 1-10 5-18" stroke="url(#g)" stroke-width="4.5" stroke-linecap="round" fill="none"/>
  <path d="M50 78c-2 10-2 20 1 25 1 3 4 3 5 1s1-5-1-8c-2-4-2-9-1-16" stroke="url(#g)" stroke-width="4.5" stroke-linecap="round" fill="none"/>
  <path d="M70 78c2 10 2 20-1 25-1 3-4 3-5 1s-1-5 1-8c2-4 2-9 1-16" stroke="url(#g)" stroke-width="4.5" stroke-linecap="round" fill="none"/>
  <path d="M84 72c6 10 10 20 8 26-1 3-3 4-5 3s-3-4-2-7c1-4-1-10-5-18" stroke="url(#g)" stroke-width="4.5" stroke-linecap="round" fill="none"/>
</svg>
